PathFileType	4	(X/Y/Z)	TVC_58_BWA_03_walk_RCNL2025.trc
DataRate	CameraRate	NumFrames	NumMarkers	Units	OrigDataRate	OrigDataStartFrame	OrigNumFrames
100	100	5	27	mm	100	210	335
Frame#	Time	R_Shoulder			L_Shoulder			C7			J_Notch			R_Elbow			L_Elbow			R_Wrist			L_Wrist			R_Asis			L_Asis			R_Psis			L_Psis			Sacral			Thoracic			Sternum			R_Thigh_Lateral			R_Knee_Lateral			R_Shank_Lateral			R_Ankle_Lateral			R_Heel			R_Toe			L_Thigh_Lateral			L_Knee_Lateral			L_Shank_Lateral			L_Ankle_Lateral			L_Heel			L_Toe		
		X1	Y1	Z1	X2	Y2	Z2	X3	Y3	Z3	X4	Y4	Z4	X5	Y5	Z5	X6	Y6	Z6	X7	Y7	Z7	X8	Y8	Z8	X9	Y9	Z9	X10	Y10	Z10	X11	Y11	Z11	X12	Y12	Z12	X13	Y13	Z13	X14	Y14	Z14	X15	Y15	Z15	X16	Y16	Z16	X17	Y17	Z17	X18	Y18	Z18	X19	Y19	Z19	X20	Y20	Z20	X21	Y21	Z21	X22	Y22	Z22	X23	Y23	Z23	X24	Y24	Z24	X25	Y25	Z25	X26	Y26	Z26	X27	Y27	Z27
210	2.09000000	-154.605652	1322.214478	285.491516	-148.921280	1332.356567	-71.359940	-213.757156	1394.767090	98.849998	-65.418755	1303.745239	109.089272	-139.407928	999.749390	348.273254	-208.736923	1012.983459	-132.868317	9.835512	795.772430	354.807388	-145.328629	778.789368	-196.653969	-25.680988	888.835571	244.463165	-14.854075	907.266479	-63.257927	-250.782684	926.169922	153.436798	-252.353958	918.135010	39.988609	-251.568321	922.152466	96.712704	-251.350922	1087.881958	96.759605	48.353661	1078.178955	99.949570	-85.784409	666.744080	323.067719	-158.010895	442.051147	240.744614	-314.365967	298.078156	276.148590	-454.458130	149.109512	175.282516	-489.547852	182.420990	117.385963	-386.369965	43.455597	136.067551	-38.685738	658.297791	-133.634735	58.478462	473.613373	-17.780640	53.098621	280.221619	-65.938797	12.933274	62.112755	20.327059	-36.421799	55.740452	67.324532	147.910324	44.419994	58.753876
211	2.10000000	-145.380478	1323.821899	285.182648	-140.836243	1333.658691	-71.664810	-205.131516	1395.829224	98.607224	-56.594418	1305.294312	108.573280	-132.804901	1001.115234	347.620941	-200.135635	1013.948914	-132.656403	12.629749	794.560883	355.135086	-133.917896	780.390747	-196.799797	-16.002689	889.800598	243.516724	-5.468980	909.175415	-63.458462	-241.047577	926.313049	153.262711	-242.714401	919.744080	39.272476	-241.880989	923.028564	96.267593	-242.070724	1088.900024	96.819283	57.627338	1079.755981	99.487579	-73.514549	667.352661	322.607544	-140.346436	441.355713	241.615341	-299.675140	300.485718	277.503265	-443.105743	155.394531	176.444687	-476.213409	190.438751	118.305138	-381.599182	44.616722	136.810516	-31.810154	659.516602	-134.311722	62.333405	473.137054	-18.362299	53.084591	279.769745	-67.054161	13.109027	62.106899	20.319193	-36.265781	55.921726	67.332146	147.781952	44.538811	58.870102
212	2.11000000	-136.208969	1325.381470	284.924500	-132.646057	1334.981079	-71.915146	-196.468140	1396.943726	98.404755	-47.769035	1306.799438	108.136345	-126.229660	1002.488708	347.054108	-191.534348	1014.949585	-132.474686	15.258105	793.354645	355.611496	-122.373569	782.062500	-196.944672	-6.668470	890.756897	242.772873	3.822176	910.803223	-63.462673	-231.638199	926.449402	152.830551	-233.246964	921.361023	38.389400	-232.442581	923.905212	95.609976	-232.901733	1089.991699	96.814873	66.776581	1081.157349	99.162399	-61.327930	667.999756	322.206207	-122.124565	440.734589	242.433563	-283.625458	302.365082	278.843170	-430.703583	161.686646	177.685974	-462.090179	198.200684	119.372704	-375.403564	46.365047	137.923141	-25.525621	660.534973	-134.933807	65.874084	472.609100	-18.995016	53.518902	279.544586	-68.052414	13.205506	62.063438	20.322777	-36.181393	56.053188	67.360504	147.624924	44.645519	58.973190
213	2.12000000	-127.105125	1326.870483	284.717865	-124.340614	1336.306885	-72.111008	-187.769043	1398.098389	98.241295	-38.946705	1308.242065	107.783119	-119.694595	1003.846558	346.575439	-182.911804	1015.973389	-132.341354	17.746515	792.161865	356.227173	-110.715458	783.786743	-197.093491	2.318209	891.689026	242.244095	13.007375	912.130249	-63.285381	-222.563232	926.590637	152.163223	-223.978210	922.965942	37.384560	-223.270721	924.778290	94.773891	-223.850159	1091.144165	96.743393	75.795670	1082.364624	98.974518	-49.245804	668.689453	321.859924	-103.408585	440.237244	243.166901	-266.273834	303.732086	280.098694	-417.265137	167.905930	178.973282	-447.245667	205.567581	120.533325	-367.511932	48.730362	139.472763	-19.759533	661.368958	-135.504318	69.174133	472.043427	-19.651903	54.510517	279.389252	-68.879753	13.250762	61.992207	20.331116	-36.147873	56.151230	67.395485	147.465683	44.723015	59.061970
214	2.13000000	-118.081123	1328.269897	284.562714	-115.912201	1337.621826	-72.252861	-179.036484	1399.281738	98.115295	-30.131334	1309.606567	107.517036	-113.213837	1005.168457	346.185730	-174.247086	1017.011292	-132.273727	20.119572	790.990936	356.971146	-98.963779	785.548096	-197.250366	10.961675	892.586731	241.936066	22.073534	913.149841	-62.950920	-213.821991	926.750488	151.292023	-214.930786	924.541016	36.307854	-214.376389	925.645752	93.799938	-214.920151	1092.345093	96.603752	84.680069	1083.367188	98.920990	-37.281540	669.431335	321.564209	-84.268188	439.915955	243.788391	-247.741913	304.658600	281.208466	-402.813416	173.959198	180.273148	-431.739471	212.399216	121.727005	-357.686462	51.698265	141.505920	-14.426272	662.037964	-136.025452	72.302704	471.453735	-20.306681	56.068764	279.170471	-69.509850	13.270073	61.904167	20.338730	-36.145325	56.230473	67.425064	147.323059	44.764072	59.135677
